<svg xmlns="http://www.w3.org/2000/svg" xmlns:xlink="http://www.w3.org/1999/xlink" width="500" zoomAndPan="magnify" viewBox="0 0 375 374.999991" height="500" preserveAspectRatio="xMidYMid meet" version="1.0"><defs><clipPath id="cf388832ff"><path d="M 230 8 L 347.234375 8 L 347.234375 126 L 230 126 Z M 230 8 " clip-rule="nonzero"/></clipPath><clipPath id="6bbe8ba53e"><path d="M 27.757812 219 L 129 219 L 129 320 L 27.757812 320 Z M 27.757812 219 " clip-rule="nonzero"/></clipPath></defs><g clip-path="url(#cf388832ff)"><path fill="#000000" d="M 289.035156 125.046875 C 256.832031 125.046875 230.636719 98.847656 230.636719 66.648438 C 230.636719 34.445312 256.832031 8.246094 289.035156 8.246094 C 321.238281 8.246094 347.433594 34.445312 347.433594 66.648438 C 347.433594 98.847656 321.238281 125.046875 289.035156 125.046875 Z M 289.035156 24.363281 C 265.722656 24.363281 246.75 43.328125 246.75 66.648438 C 246.75 89.960938 265.71875 108.933594 289.035156 108.933594 C 312.351562 108.933594 331.320312 89.964844 331.320312 66.648438 C 331.320312 43.332031 312.347656 24.363281 289.035156 24.363281 Z M 289.035156 24.363281 " fill-opacity="1" fill-rule="nonzero"/></g><g clip-path="url(#6bbe8ba53e)"><path fill="#000000" d="M 78.074219 219.074219 C 105.707031 219.074219 128.191406 241.558594 128.191406 269.191406 C 128.191406 296.824219 105.707031 319.304688 78.074219 319.304688 C 50.441406 319.304688 27.957031 296.824219 27.957031 269.191406 C 27.957031 241.558594 50.441406 219.074219 78.074219 219.074219 Z M 78.074219 303.191406 C 96.824219 303.191406 112.078125 287.941406 112.078125 269.195312 C 112.078125 250.445312 96.824219 235.191406 78.074219 235.191406 C 59.328125 235.191406 44.074219 250.445312 44.074219 269.195312 C 44.074219 287.9375 59.328125 303.191406 78.074219 303.191406 Z M 78.074219 303.191406 " fill-opacity="1" fill-rule="nonzero"/></g><path fill="#c9e265" d="M 135.609375 91.007812 C 120.707031 91.007812 108.582031 78.882812 108.582031 63.980469 C 108.582031 49.078125 120.707031 36.953125 135.609375 36.953125 C 150.511719 36.953125 162.636719 49.078125 162.636719 63.980469 C 162.636719 78.882812 150.515625 91.007812 135.609375 91.007812 Z M 135.609375 53.066406 C 129.589844 53.066406 124.695312 57.960938 124.695312 63.980469 C 124.695312 70 129.589844 74.894531 135.609375 74.894531 C 141.628906 74.894531 146.523438 70 146.523438 63.980469 C 146.523438 57.960938 141.628906 53.066406 135.609375 53.066406 Z M 135.609375 53.066406 " fill-opacity="1" fill-rule="nonzero"/><path fill="#c9e265" d="M 276.75 208.164062 C 276.75 193.261719 288.878906 181.140625 303.78125 181.140625 C 318.683594 181.140625 330.808594 193.261719 330.808594 208.164062 C 330.808594 223.066406 318.683594 235.191406 303.78125 235.191406 C 288.878906 235.191406 276.75 223.066406 276.75 208.164062 Z M 314.695312 208.164062 C 314.695312 202.148438 309.800781 197.25 303.78125 197.25 C 297.761719 197.25 292.867188 202.148438 292.867188 208.164062 C 292.867188 214.183594 297.761719 219.078125 303.78125 219.078125 C 309.800781 219.078125 314.695312 214.183594 314.695312 208.164062 Z M 314.695312 208.164062 " fill-opacity="1" fill-rule="nonzero"/><path fill="#c9e265" d="M 289.035156 312.285156 C 303.9375 312.285156 316.0625 324.410156 316.0625 339.3125 C 316.0625 354.214844 303.9375 366.34375 289.035156 366.34375 C 274.132812 366.34375 262.007812 354.214844 262.007812 339.3125 C 262.007812 324.410156 274.132812 312.285156 289.035156 312.285156 Z M 289.035156 350.226562 C 295.054688 350.226562 299.949219 345.332031 299.949219 339.3125 C 299.949219 333.296875 295.054688 328.398438 289.035156 328.398438 C 283.015625 328.398438 278.121094 333.296875 278.121094 339.3125 C 278.121094 345.332031 283.015625 350.226562 289.035156 350.226562 Z M 289.035156 350.226562 " fill-opacity="1" fill-rule="nonzero"/><path fill="#000000" d="M 120.558594 232.269531 C 117.71875 228.84375 118.199219 223.765625 121.625 220.929688 L 146.097656 200.664062 C 143.714844 195.820312 142.339844 190.394531 142.339844 184.640625 C 142.339844 171.597656 149.234375 160.167969 159.542969 153.707031 L 142.769531 104.03125 C 141.34375 99.816406 143.605469 95.242188 147.824219 93.816406 C 152.046875 92.394531 156.617188 94.65625 158.035156 98.871094 L 174.75 148.375 C 176.097656 148.21875 177.464844 148.128906 178.855469 148.128906 C 185.730469 148.128906 192.148438 150.074219 197.648438 153.394531 L 228.339844 115.738281 C 231.15625 112.289062 236.226562 111.769531 239.675781 114.582031 C 243.125 117.394531 243.640625 122.46875 240.832031 125.917969 L 209.332031 164.574219 C 212.820312 169.851562 214.9375 176.082031 215.277344 182.785156 L 265.703125 193.910156 C 270.050781 194.867188 272.796875 199.171875 271.835938 203.515625 C 271.007812 207.277344 267.675781 209.835938 263.976562 209.835938 C 263.398438 209.835938 262.816406 209.773438 262.230469 209.644531 L 212.550781 198.6875 C 210.332031 203.988281 206.886719 208.648438 202.582031 212.335938 L 270.386719 301.726562 C 273.078125 305.269531 272.382812 310.328125 268.835938 313.019531 C 267.378906 314.117188 265.667969 314.652344 263.972656 314.652344 C 261.539062 314.652344 259.128906 313.558594 257.546875 311.46875 L 188.109375 219.921875 C 185.148438 220.699219 182.058594 221.15625 178.855469 221.15625 C 170.292969 221.15625 162.429688 218.175781 156.195312 213.222656 L 131.898438 233.34375 C 130.398438 234.589844 128.574219 235.195312 126.765625 235.195312 C 124.449219 235.191406 122.148438 234.195312 120.558594 232.269531 Z M 178.855469 205.039062 C 190.101562 205.039062 199.25 195.886719 199.25 184.640625 C 199.25 173.390625 190.101562 164.242188 178.855469 164.242188 C 167.609375 164.242188 158.457031 173.390625 158.457031 184.640625 C 158.457031 195.886719 167.609375 205.039062 178.855469 205.039062 Z M 178.855469 205.039062 " fill-opacity="1" fill-rule="nonzero"/></svg>